# xmcd CD database file
#
# Track frame offsets:
#	150
#	15725
#	35742
#
# Disc length: 682 seconds
#
# Revision: 0
# Processed by: cddbd v1.5PL3 Copyright (c) Steve Scherf et al.
# Submitted via: CDex 1.50
#
DISCID=1e02a803
DTITLE=CoCo - 無敵のOnly You
DYEAR=1991
DGENRE=JPop
TTITLE0=無敵のOnly You
TTITLE1=君がくれた宝石(ジュエル)
TTITLE2=無敵のOnly You (ｶﾗｵｹ)
EXTD=YEAR: 1991/07/31
EXTT0=
EXTT1=
EXTT2=
PLAYORDER=
